<svg width="332" height="12" viewBox="0 0 332 12" fill="none" xmlns="http://www.w3.org/2000/svg">
<path opacity="0.35" fill-rule="evenodd" clip-rule="evenodd" d="M326.163 0.00268555C327.636 0.00268555 328.83 1.19659 328.83 2.66935V8.66935C328.83 10.1421 327.636 11.336 326.163 11.336H309.496C308.023 11.336 306.83 10.1421 306.83 8.66935V2.66935C306.83 1.19659 308.023 0.00268555 309.496 0.00268555H326.163ZM326.163 1.00269H309.496C308.624 1.00269 307.909 1.6724 307.836 2.52555L307.83 2.66935V8.66935C307.83 9.54138 308.499 10.257 309.352 10.3299L309.496 10.336H326.163C327.035 10.336 327.75 9.66631 327.823 8.81316L327.83 8.66935V2.66935C327.83 1.79732 327.16 1.08171 326.307 1.0088L326.163 1.00269ZM331.158 5.66935C331.158 6.54249 330.634 7.33058 329.83 7.66935V3.66935C330.634 4.00813 331.158 4.79622 331.158 5.66935Z" fill="white"/>
<path fill-rule="evenodd" clip-rule="evenodd" d="M300.113 4.65566C298.507 3.12886 296.376 2.27742 294.16 2.27733C291.944 2.27732 289.812 3.12876 288.206 4.65566C288.085 4.77372 287.892 4.77223 287.773 4.65233L286.617 3.48566C286.556 3.42489 286.523 3.34262 286.523 3.25704C286.524 3.17146 286.558 3.08963 286.62 3.02966C290.835 -1.00989 297.484 -1.00989 301.7 3.02966C301.761 3.08967 301.795 3.17153 301.796 3.25711C301.796 3.34269 301.763 3.42494 301.702 3.48566L300.546 4.65233C300.427 4.77205 300.234 4.77354 300.113 4.65566ZM297.454 7.34266C296.551 6.52545 295.377 6.07292 294.16 6.07299C292.943 6.0735 291.77 6.52599 290.868 7.34266C290.746 7.45864 290.554 7.45613 290.435 7.33699L289.281 6.17033C289.22 6.10922 289.186 6.02621 289.187 5.93992C289.187 5.85363 289.223 5.77127 289.285 5.71133C292.033 3.15494 296.289 3.15494 299.037 5.71133C299.099 5.77127 299.135 5.85359 299.136 5.93985C299.136 6.02612 299.103 6.10913 299.042 6.17033L297.887 7.33699C297.768 7.45613 297.576 7.45864 297.454 7.34266ZM296.379 8.85733C296.441 8.79672 296.475 8.71332 296.473 8.62681C296.471 8.54031 296.434 8.45836 296.37 8.40033C295.094 7.32144 293.226 7.32144 291.95 8.40033C291.886 8.45831 291.849 8.54023 291.847 8.62674C291.845 8.71325 291.879 8.79668 291.941 8.85733L293.938 10.873C293.997 10.9322 294.077 10.9656 294.16 10.9656C294.243 10.9656 294.323 10.9322 294.382 10.873L296.379 8.85733ZM310.163 2.00266C309.426 2.00266 308.83 2.59962 308.83 3.336V8.00266C308.83 8.73904 309.426 9.336 310.163 9.336H325.496C326.233 9.336 326.83 8.73904 326.83 8.00266V3.336C326.83 2.59962 326.233 2.00266 325.496 2.00266H310.163ZM280.496 0.335991H279.496C278.944 0.335991 278.496 0.783706 278.496 1.33599V10.0027C278.496 10.5549 278.944 11.0027 279.496 11.0027H280.496C281.048 11.0027 281.496 10.5549 281.496 10.0027V1.33599C281.496 0.783706 281.048 0.335991 280.496 0.335991ZM274.829 2.66932H275.829C276.382 2.66932 276.829 3.11704 276.829 3.66932V10.0027C276.829 10.5549 276.382 11.0027 275.829 11.0027H274.829C274.277 11.0027 273.829 10.5549 273.829 10.0027V3.66932C273.829 3.11704 274.277 2.66932 274.829 2.66932ZM271.163 5.00266H270.163C269.611 5.00266 269.163 5.45037 269.163 6.00266V10.0027C269.163 10.5549 269.611 11.0027 270.163 11.0027H271.163C271.715 11.0027 272.163 10.5549 272.163 10.0027V6.00266C272.163 5.45037 271.715 5.00266 271.163 5.00266ZM266.496 7.00266H265.496C264.944 7.00266 264.496 7.45037 264.496 8.00266V10.0027C264.496 10.5549 264.944 11.0027 265.496 11.0027H266.496C267.048 11.0027 267.496 10.5549 267.496 10.0027V8.00266C267.496 7.45037 267.048 7.00266 266.496 7.00266ZM7.6084 6.1244C7.6084 9.44667 6.11816 11.4086 3.60938 11.4086C1.80469 11.4086 0.430664 10.3422 0.136719 8.72206H1.89355C2.11914 9.46718 2.77539 9.93202 3.62305 9.93202C5.06543 9.93202 5.91992 8.58534 5.91992 6.32948H5.80371C5.33887 7.26601 4.40234 7.80605 3.24707 7.80605C1.36719 7.80605 0 6.42519 0 4.5248C0 2.50136 1.51758 1.05898 3.66406 1.05898C5.10645 1.05898 6.24805 1.74257 6.91113 3.00722C7.36914 3.82069 7.6084 4.87343 7.6084 6.1244ZM1.72949 4.47011C1.72949 5.59804 2.53613 6.40468 3.6709 6.40468C4.79883 6.40468 5.62598 5.59804 5.62598 4.49745C5.62598 3.38319 4.77832 2.5287 3.67773 2.5287C2.57715 2.5287 1.72949 3.36952 1.72949 4.47011ZM10.4251 4.99648C11.0745 4.99648 11.5188 4.53847 11.5188 3.92323C11.5188 3.30116 11.0745 2.84315 10.4251 2.84315C9.7825 2.84315 9.33133 3.30116 9.33133 3.92323C9.33133 4.53847 9.7825 4.99648 10.4251 4.99648ZM11.5188 9.04335C11.5188 9.65858 11.0745 10.1234 10.4251 10.1234C9.7825 10.1234 9.33133 9.65858 9.33133 9.04335C9.33133 8.42128 9.7825 7.96327 10.4251 7.96327C11.0745 7.96327 11.5188 8.42128 11.5188 9.04335ZM19.7427 11.1693V9.33046H21.0757V7.84023H19.7427V1.30507H17.2545C15.5113 3.93007 14.1236 6.1244 13.2349 7.75819V9.33046H18.0543V11.1693H19.7427ZM14.8687 7.88124H18.0816V2.74062H17.9859C17.0425 4.13515 16.0171 5.75526 14.8687 7.7787V7.88124ZM26.7567 11.1693V1.30507H24.9998L22.4227 3.10976V4.80507L24.8768 3.08241H24.993V11.1693H26.7567Z" fill="white"/>
</svg>
