<svg width="50" height="50" viewBox="0 0 50 50" fill="none" xmlns="http://www.w3.org/2000/svg">
<path d="M30.1147 13.9636V8.48651C30.1147 7.25223 31.4775 6.58881 32.4033 7.27795L32.5627 7.4168L44.1263 18.7824C44.6663 19.3147 44.7152 20.1684 44.2729 20.7573L44.1263 20.9244L32.5627 32.2978C31.6935 33.1515 30.2818 32.6038 30.1276 31.4389L30.1147 31.2281V25.8384L29.4513 25.8975C24.8227 26.3938 20.3845 28.5307 16.1134 32.3441C15.1105 33.2389 13.5625 32.3955 13.7271 31.0429C15.0077 20.5259 20.3742 14.7273 29.5361 14.0022L30.1147 13.9636ZM12.4285 9.57165C10.7236 9.57165 9.08846 10.2489 7.88287 11.4545C6.67729 12.6601 6 14.2952 6 16.0002V36.5715C6 38.2764 6.67729 39.9115 7.88287 41.1171C9.08846 42.3227 10.7236 43 12.4285 43H32.9998C34.7048 43 36.3399 42.3227 37.5455 41.1171C38.7511 39.9115 39.4284 38.2764 39.4284 36.5715V34.0001C39.4284 33.6591 39.2929 33.332 39.0518 33.0909C38.8107 32.8498 38.4836 32.7144 38.1426 32.7144C37.8017 32.7144 37.4746 32.8498 37.2335 33.0909C36.9924 33.332 36.8569 33.6591 36.8569 34.0001V36.5715C36.8569 37.5944 36.4506 38.5755 35.7272 39.2989C35.0039 40.0222 34.0228 40.4286 32.9998 40.4286H12.4285C11.4056 40.4286 10.4245 40.0222 9.70114 39.2989C8.97779 38.5755 8.57141 37.5944 8.57141 36.5715V16.0002C8.57141 14.9772 8.97779 13.9961 9.70114 13.2728C10.4245 12.5494 11.4056 12.1431 12.4285 12.1431H20.1428C20.4838 12.1431 20.8108 12.0076 21.0519 11.7665C21.293 11.5254 21.4285 11.1983 21.4285 10.8574C21.4285 10.5164 21.293 10.1893 21.0519 9.94822C20.8108 9.7071 20.4838 9.57165 20.1428 9.57165H12.4285Z" fill="white"/>
</svg>
