<svg width="50" height="50" viewBox="0 0 50 50" fill="none" xmlns="http://www.w3.org/2000/svg">
<path fill-rule="evenodd" clip-rule="evenodd" d="M24.8681 6C23.6791 6 22.6456 6.76072 20.5802 8.28398L17.4705 10.577C17.1452 10.8173 16.9826 10.9366 16.8073 11.0378C16.632 11.1389 16.4459 11.2184 16.0755 11.3811L12.5357 12.9278C10.1831 13.9578 9.00675 14.4709 8.41227 15.4991C7.81959 16.5291 7.96053 17.8048 8.24784 20.3562L8.67789 24.1959C8.72306 24.5971 8.74475 24.7976 8.74475 25C8.74475 25.2024 8.72306 25.403 8.67789 25.8041L8.24784 29.6438C7.96234 32.1952 7.81959 33.4709 8.41227 34.5009C9.00856 35.5309 10.1831 36.044 12.5357 37.0722L16.0773 38.6189C16.4459 38.7816 16.632 38.8611 16.8073 38.9622C16.9808 39.0634 17.1452 39.1827 17.4705 39.423L20.5784 41.716C22.6474 43.2393 23.6809 44 24.8681 44C26.0553 44 27.0906 43.2393 29.156 41.716L32.2657 39.423C32.591 39.1827 32.7536 39.0634 32.9289 38.9622C33.1041 38.8611 33.2902 38.7816 33.6607 38.6189L37.2005 37.0722C39.5531 36.0422 40.7294 35.5291 41.3239 34.5009C41.9166 33.4709 41.7757 32.1952 41.4865 29.6438L41.0583 25.8041C41.0131 25.403 40.9896 25.2024 40.9896 25C40.9896 24.7976 41.0131 24.5971 41.0583 24.1959L41.4883 20.3562C41.7738 17.8048 41.9166 16.5291 41.3239 15.4991C40.7276 14.4691 39.5531 13.956 37.2005 12.9278L33.6589 11.3811C33.4095 11.2799 33.1658 11.1653 32.9289 11.0378C32.6997 10.8962 32.4783 10.7424 32.2657 10.577L29.1578 8.28398C27.087 6.76072 26.0534 6 24.8681 6ZM24.8681 32.2278C26.785 32.2278 28.6234 31.4663 29.9789 30.1108C31.3344 28.7553 32.0959 26.9169 32.0959 25C32.0959 23.0831 31.3344 21.2447 29.9789 19.8892C28.6234 18.5337 26.785 17.7722 24.8681 17.7722C22.9512 17.7722 21.1128 18.5337 19.7573 19.8892C18.4018 21.2447 17.6403 23.0831 17.6403 25C17.6403 26.9169 18.4018 28.7553 19.7573 30.1108C21.1128 31.4663 22.9512 32.2278 24.8681 32.2278Z" fill="white"/>
</svg>
