<svg width="40" height="40" viewBox="0 0 40 40" fill="none" xmlns="http://www.w3.org/2000/svg">
<path d="M30.4886 32.5932L22.2159 24.3087C21.4773 24.9004 20.6278 25.3689 19.6676 25.7141C18.7074 26.0593 17.6856 26.2319 16.6023 26.2319C13.9186 26.2319 11.6475 25.3013 9.78909 23.4403C7.9297 21.5782 7 19.3035 7 16.6159C7 13.9284 7.9297 11.6536 9.78909 9.79158C11.6475 7.93053 13.9186 7 16.6023 7C19.286 7 21.5575 7.93053 23.4169 9.79158C25.2753 11.6536 26.2045 13.9284 26.2045 16.6159C26.2045 17.7008 26.0322 18.724 25.6875 19.6856C25.3428 20.6472 24.875 21.4979 24.2841 22.2376L32.5938 30.559C32.8646 30.8302 33 31.1631 33 31.5576C33 31.9521 32.8523 32.2973 32.5568 32.5932C32.286 32.8644 31.9413 33 31.5227 33C31.1042 33 30.7595 32.8644 30.4886 32.5932ZM16.6023 23.2731C18.4489 23.2731 20.0187 22.6261 21.3118 21.3322C22.6039 20.0372 23.25 18.4651 23.25 16.6159C23.25 14.7667 22.6039 13.1946 21.3118 11.8997C20.0187 10.6057 18.4489 9.95875 16.6023 9.95875C14.7557 9.95875 13.1858 10.6057 11.8927 11.8997C10.6006 13.1946 9.95455 14.7667 9.95455 16.6159C9.95455 18.4651 10.6006 20.0372 11.8927 21.3322C13.1858 22.6261 14.7557 23.2731 16.6023 23.2731Z" fill="white"/>
</svg>
