<svg width="50" height="50" viewBox="0 0 50 50" fill="none" xmlns="http://www.w3.org/2000/svg">
<g clip-path="url(#clip0_2982_360)">
<path d="M35.6284 44.1413C35.095 44.1408 34.5738 43.981 34.1317 43.6826L25.1267 37.6471C25.0824 37.6165 25.0298 37.6001 24.9759 37.6001C24.922 37.6001 24.8693 37.6165 24.825 37.6471L15.8201 43.6826C15.3679 43.9845 14.8345 44.1417 14.2909 44.1334C13.7472 44.125 13.219 43.9515 12.7763 43.6359C12.3336 43.3202 11.9973 42.8773 11.8123 42.3661C11.6272 41.8548 11.602 41.2994 11.7401 40.7735L14.6975 30.3442C14.7115 30.2918 14.7098 30.2364 14.6926 30.1849C14.6754 30.1334 14.6436 30.0881 14.6009 30.0545L6.07884 23.3551C5.63021 23.0209 5.29742 22.5547 5.12715 22.0218C4.95687 21.4889 4.95764 20.9161 5.12935 20.3837C5.30106 19.8512 5.63509 19.3859 6.08462 19.0529C6.53415 18.7199 7.07662 18.5359 7.63598 18.5268L18.4998 18.1164C18.5532 18.1127 18.6044 18.0936 18.6473 18.0615C18.6901 18.0294 18.7227 17.9855 18.7412 17.9353L22.4832 7.75952C22.6718 7.24366 23.0144 6.79821 23.4646 6.4835C23.9147 6.16878 24.4507 6 25 6C25.5493 6 26.0853 6.16878 26.5354 6.4835C26.9856 6.79821 27.3282 7.24366 27.5168 7.75952L31.2588 17.9353C31.2773 17.9855 31.3099 18.0294 31.3527 18.0615C31.3956 18.0936 31.4468 18.1127 31.5002 18.1164L42.364 18.5268C42.9234 18.5359 43.4658 18.7199 43.9154 19.0529C44.3649 19.3859 44.6989 19.8512 44.8707 20.3837C45.0424 20.9161 45.0431 21.4889 44.8729 22.0218C44.7026 22.5547 44.3698 23.0209 43.9212 23.3551L35.3991 30.0545C35.3551 30.087 35.3223 30.1322 35.305 30.1841C35.2877 30.2359 35.2869 30.2919 35.3025 30.3442L38.2599 40.7735C38.3637 41.1735 38.374 41.5921 38.29 41.9967C38.206 42.4014 38.0299 42.7813 37.7755 43.1069C37.521 43.4326 37.195 43.6953 36.8227 43.8747C36.4503 44.054 36.0417 44.1452 35.6284 44.1413ZM24.9819 35.1846C25.5164 35.201 26.0337 35.3776 26.4666 35.6916L35.4715 41.7271C35.5172 41.7618 35.5728 41.7808 35.6301 41.7812C35.6874 41.7817 35.7434 41.7636 35.7895 41.7296C35.8357 41.6957 35.8697 41.6477 35.8863 41.5928C35.903 41.538 35.9014 41.4792 35.8819 41.4253L32.9246 30.996C32.779 30.4844 32.7898 29.941 32.9554 29.4355C33.121 28.9301 33.4339 28.4857 33.854 28.1594L42.3761 21.46C42.4226 21.4274 42.4574 21.3807 42.4754 21.3268C42.4933 21.2729 42.4936 21.2146 42.476 21.1606C42.4584 21.1066 42.424 21.0596 42.3778 21.0266C42.3316 20.9936 42.276 20.9763 42.2192 20.9772L31.3553 20.5668C30.8234 20.546 30.3097 20.3673 29.8797 20.0534C29.4497 19.7396 29.123 19.3047 28.9412 18.8044L25.1992 8.62863C25.1823 8.5746 25.1486 8.52737 25.103 8.49384C25.0574 8.4603 25.0023 8.44222 24.9457 8.44222C24.8891 8.44222 24.834 8.4603 24.7884 8.49384C24.7428 8.52737 24.7091 8.5746 24.6922 8.62863L20.9864 18.7923C20.8046 19.2927 20.4778 19.7275 20.0479 20.0414C19.6179 20.3553 19.1042 20.534 18.5722 20.5547L7.70841 20.9651C7.65161 20.9642 7.59601 20.9815 7.54978 21.0145C7.50355 21.0475 7.46913 21.0945 7.45157 21.1485C7.43401 21.2026 7.43424 21.2608 7.45222 21.3147C7.47021 21.3686 7.505 21.4153 7.55149 21.4479L16.0856 28.1594C16.5044 28.4867 16.8164 28.9312 16.9819 29.4363C17.1474 29.9414 17.159 30.4843 17.0151 30.996L14.0698 41.4253C14.0522 41.4775 14.0521 41.5341 14.0695 41.5863C14.087 41.6386 14.121 41.6838 14.1664 41.715C14.2101 41.7524 14.2657 41.773 14.3233 41.773C14.3808 41.773 14.4365 41.7524 14.4802 41.715L23.4851 35.6796C23.9252 35.3876 24.4417 35.2323 24.9698 35.2329L24.9819 35.1846Z" fill="white"/>
</g>
<defs>
<clipPath id="clip0_2982_360">
<rect width="50" height="50" fill="white"/>
</clipPath>
</defs>
</svg>
