<svg width="50" height="50" viewBox="0 0 50 50" fill="none" xmlns="http://www.w3.org/2000/svg">
<path d="M20.6742 14.3254C20.3597 14.3254 20.058 14.4504 19.8356 14.6728C19.6132 14.8952 19.4882 15.1969 19.4882 15.5115C19.4882 15.826 19.6132 16.1277 19.8356 16.3501C20.058 16.5725 20.3597 16.6975 20.6742 16.6975H30.1625C30.477 16.6975 30.7787 16.5725 31.0011 16.3501C31.2235 16.1277 31.3485 15.826 31.3485 15.5115C31.3485 15.1969 31.2235 14.8952 31.0011 14.6728C30.7787 14.4504 30.477 14.3254 30.1625 14.3254H20.6742Z" fill="white"/>
<path fill-rule="evenodd" clip-rule="evenodd" d="M25.3282 8C22.05 8 19.4677 8 17.4498 8.27358C15.3782 8.55506 13.7257 9.14649 12.4274 10.459C11.1307 11.77 10.5487 13.4352 10.2704 15.5226C10 17.561 10 20.1686 10 23.4832V31.545C10 33.9297 10 35.8163 10.1518 37.2379C10.302 38.6422 10.6231 39.9089 11.5434 40.7565C12.2803 41.4365 13.2133 41.8634 14.2096 41.9789C15.4541 42.1212 16.6165 41.5266 17.7629 40.7138C18.9221 39.8946 20.3279 38.6501 22.1022 37.0814L22.1592 37.0308C22.9815 36.3034 23.5381 35.8131 24.003 35.4716C24.4521 35.1442 24.7257 35.0256 24.9566 34.9782C25.2615 34.9181 25.5752 34.9181 25.8801 34.9782C26.111 35.0256 26.3862 35.1442 26.8337 35.4716C27.2986 35.8115 27.8552 36.3034 28.6776 37.0308L28.7361 37.0814C30.5088 38.6501 31.9146 39.8946 33.0738 40.7154C34.2203 41.5266 35.3826 42.1212 36.6271 41.9789C37.6229 41.8643 38.5566 41.4363 39.2933 40.7565C40.2121 39.9089 40.5347 38.6422 40.6849 37.2379C40.8367 35.8163 40.8367 33.9297 40.8367 31.545V23.4832C40.8367 20.1686 40.8367 17.5594 40.5663 15.5226C40.288 13.4352 39.706 11.77 38.4093 10.459C37.111 9.14649 35.4585 8.55506 33.3869 8.27358C31.369 8 28.7867 8 25.5085 8H25.3282ZM14.1116 12.1274C14.8975 11.3335 15.9649 10.8702 17.7677 10.6251C19.6068 10.3752 22.0279 10.3721 25.4168 10.3721C28.8056 10.3721 31.2267 10.3752 33.0659 10.6251C34.8686 10.8702 35.936 11.3335 36.722 12.1274C37.5095 12.9228 37.9697 14.006 38.2132 15.8357C38.4599 17.6985 38.4631 20.1481 38.4631 23.5733V31.4691C38.4631 33.9455 38.4615 35.7072 38.3255 36.9849C38.1832 38.2975 37.9254 38.7893 37.685 39.0122C37.315 39.3522 36.8501 39.5657 36.3567 39.6211C36.0404 39.6574 35.5122 39.5357 34.4432 38.7798C33.4027 38.0413 32.0917 36.8853 30.2479 35.2533L30.2067 35.217C29.435 34.5354 28.7962 33.9708 28.2316 33.5565C27.6418 33.1264 27.0472 32.7943 26.3466 32.6536C25.7329 32.53 25.1007 32.53 24.4869 32.6536C23.7864 32.7959 23.1902 33.1264 22.6019 33.5581C22.0374 33.9693 21.3985 34.5354 20.6268 35.217L20.5857 35.2533C18.7418 36.8853 17.4309 38.0413 16.3903 38.7798C15.3213 39.5357 14.7931 39.6574 14.4769 39.6211C13.9807 39.5641 13.5155 39.3509 13.1485 39.0122C12.9081 38.7893 12.6488 38.2975 12.5096 36.9849C12.3721 35.7056 12.3705 33.9455 12.3705 31.4691V23.5717C12.3705 20.1481 12.3736 17.6985 12.6203 15.8357C12.8639 14.006 13.324 12.9228 14.1116 12.1274Z" fill="white"/>
</svg>
