<svg width="30" height="30" viewBox="0 0 30 30" fill="none" xmlns="http://www.w3.org/2000/svg">
<mask id="path-1-outside-1_2723_502" maskUnits="userSpaceOnUse" x="0.172119" y="4.85938" width="30" height="20" fill="black">
<rect fill="white" x="0.172119" y="4.85938" width="30" height="20"/>
<path d="M28.7673 14.7152C28.7274 14.6238 27.7524 12.4617 25.5751 10.2844C23.5548 8.26641 20.0837 5.85938 15.0001 5.85938C9.91648 5.85938 6.44538 8.26641 4.42507 10.2844C2.24773 12.4617 1.27273 14.6203 1.23289 14.7152C1.19282 14.8052 1.17212 14.9027 1.17212 15.0012C1.17212 15.0997 1.19282 15.1971 1.23289 15.2871C1.27273 15.3773 2.24773 17.5395 4.42507 19.7168C6.44538 21.7348 9.91648 24.1406 15.0001 24.1406C20.0837 24.1406 23.5548 21.7348 25.5751 19.7168C27.7524 17.5395 28.7274 15.3809 28.7673 15.2871C28.8073 15.1971 28.828 15.0997 28.828 15.0012C28.828 14.9027 28.8073 14.8052 28.7673 14.7152ZM15.0001 22.7344C11.3227 22.7344 8.11179 21.3961 5.45515 18.7582C4.34149 17.6514 3.3991 16.3848 2.65906 15C3.39888 13.6155 4.34131 12.3492 5.45515 11.243C8.11179 8.60391 11.3227 7.26562 15.0001 7.26562C18.6774 7.26562 21.8884 8.60391 24.545 11.243C25.6588 12.3492 26.6013 13.6155 27.3411 15C26.5946 16.4309 22.8516 22.7344 15.0001 22.7344ZM15.0001 9.60938C13.9339 9.60938 12.8917 9.92553 12.0052 10.5179C11.1187 11.1102 10.4278 11.9521 10.0198 12.9371C9.61178 13.9221 9.50503 15.006 9.71303 16.0517C9.92103 17.0973 10.4344 18.0579 11.1883 18.8117C11.9422 19.5656 12.9027 20.079 13.9484 20.287C14.9941 20.495 16.078 20.3883 17.063 19.9803C18.048 19.5723 18.8899 18.8814 19.4822 17.9949C20.0745 17.1084 20.3907 16.0662 20.3907 15C20.3888 13.5709 19.8203 12.2008 18.8098 11.1903C17.7992 10.1798 16.4292 9.61124 15.0001 9.60938ZM15.0001 18.9844C14.212 18.9844 13.4417 18.7507 12.7865 18.3129C12.1312 17.8751 11.6206 17.2528 11.319 16.5248C11.0174 15.7967 10.9385 14.9956 11.0923 14.2227C11.246 13.4498 11.6255 12.7398 12.1827 12.1826C12.7399 11.6254 13.4499 11.2459 14.2228 11.0922C14.9957 10.9384 15.7968 11.0173 16.5248 11.3189C17.2529 11.6205 17.8752 12.1312 18.313 12.7864C18.7508 13.4416 18.9844 14.212 18.9844 15C18.9844 16.0567 18.5647 17.0702 17.8175 17.8174C17.0702 18.5646 16.0568 18.9844 15.0001 18.9844Z"/>
</mask>
<path d="M28.7673 14.7152C28.7274 14.6238 27.7524 12.4617 25.5751 10.2844C23.5548 8.26641 20.0837 5.85938 15.0001 5.85938C9.91648 5.85938 6.44538 8.26641 4.42507 10.2844C2.24773 12.4617 1.27273 14.6203 1.23289 14.7152C1.19282 14.8052 1.17212 14.9027 1.17212 15.0012C1.17212 15.0997 1.19282 15.1971 1.23289 15.2871C1.27273 15.3773 2.24773 17.5395 4.42507 19.7168C6.44538 21.7348 9.91648 24.1406 15.0001 24.1406C20.0837 24.1406 23.5548 21.7348 25.5751 19.7168C27.7524 17.5395 28.7274 15.3809 28.7673 15.2871C28.8073 15.1971 28.828 15.0997 28.828 15.0012C28.828 14.9027 28.8073 14.8052 28.7673 14.7152ZM15.0001 22.7344C11.3227 22.7344 8.11179 21.3961 5.45515 18.7582C4.34149 17.6514 3.3991 16.3848 2.65906 15C3.39888 13.6155 4.34131 12.3492 5.45515 11.243C8.11179 8.60391 11.3227 7.26562 15.0001 7.26562C18.6774 7.26562 21.8884 8.60391 24.545 11.243C25.6588 12.3492 26.6013 13.6155 27.3411 15C26.5946 16.4309 22.8516 22.7344 15.0001 22.7344ZM15.0001 9.60938C13.9339 9.60938 12.8917 9.92553 12.0052 10.5179C11.1187 11.1102 10.4278 11.9521 10.0198 12.9371C9.61178 13.9221 9.50503 15.006 9.71303 16.0517C9.92103 17.0973 10.4344 18.0579 11.1883 18.8117C11.9422 19.5656 12.9027 20.079 13.9484 20.287C14.9941 20.495 16.078 20.3883 17.063 19.9803C18.048 19.5723 18.8899 18.8814 19.4822 17.9949C20.0745 17.1084 20.3907 16.0662 20.3907 15C20.3888 13.5709 19.8203 12.2008 18.8098 11.1903C17.7992 10.1798 16.4292 9.61124 15.0001 9.60938ZM15.0001 18.9844C14.212 18.9844 13.4417 18.7507 12.7865 18.3129C12.1312 17.8751 11.6206 17.2528 11.319 16.5248C11.0174 15.7967 10.9385 14.9956 11.0923 14.2227C11.246 13.4498 11.6255 12.7398 12.1827 12.1826C12.7399 11.6254 13.4499 11.2459 14.2228 11.0922C14.9957 10.9384 15.7968 11.0173 16.5248 11.3189C17.2529 11.6205 17.8752 12.1312 18.313 12.7864C18.7508 13.4416 18.9844 14.212 18.9844 15C18.9844 16.0567 18.5647 17.0702 17.8175 17.8174C17.0702 18.5646 16.0568 18.9844 15.0001 18.9844Z" fill="black"/>
<path d="M28.7673 14.7152C28.7274 14.6238 27.7524 12.4617 25.5751 10.2844C23.5548 8.26641 20.0837 5.85938 15.0001 5.85938C9.91648 5.85938 6.44538 8.26641 4.42507 10.2844C2.24773 12.4617 1.27273 14.6203 1.23289 14.7152C1.19282 14.8052 1.17212 14.9027 1.17212 15.0012C1.17212 15.0997 1.19282 15.1971 1.23289 15.2871C1.27273 15.3773 2.24773 17.5395 4.42507 19.7168C6.44538 21.7348 9.91648 24.1406 15.0001 24.1406C20.0837 24.1406 23.5548 21.7348 25.5751 19.7168C27.7524 17.5395 28.7274 15.3809 28.7673 15.2871C28.8073 15.1971 28.828 15.0997 28.828 15.0012C28.828 14.9027 28.8073 14.8052 28.7673 14.7152ZM15.0001 22.7344C11.3227 22.7344 8.11179 21.3961 5.45515 18.7582C4.34149 17.6514 3.3991 16.3848 2.65906 15C3.39888 13.6155 4.34131 12.3492 5.45515 11.243C8.11179 8.60391 11.3227 7.26562 15.0001 7.26562C18.6774 7.26562 21.8884 8.60391 24.545 11.243C25.6588 12.3492 26.6013 13.6155 27.3411 15C26.5946 16.4309 22.8516 22.7344 15.0001 22.7344ZM15.0001 9.60938C13.9339 9.60938 12.8917 9.92553 12.0052 10.5179C11.1187 11.1102 10.4278 11.9521 10.0198 12.9371C9.61178 13.9221 9.50503 15.006 9.71303 16.0517C9.92103 17.0973 10.4344 18.0579 11.1883 18.8117C11.9422 19.5656 12.9027 20.079 13.9484 20.287C14.9941 20.495 16.078 20.3883 17.063 19.9803C18.048 19.5723 18.8899 18.8814 19.4822 17.9949C20.0745 17.1084 20.3907 16.0662 20.3907 15C20.3888 13.5709 19.8203 12.2008 18.8098 11.1903C17.7992 10.1798 16.4292 9.61124 15.0001 9.60938ZM15.0001 18.9844C14.212 18.9844 13.4417 18.7507 12.7865 18.3129C12.1312 17.8751 11.6206 17.2528 11.319 16.5248C11.0174 15.7967 10.9385 14.9956 11.0923 14.2227C11.246 13.4498 11.6255 12.7398 12.1827 12.1826C12.7399 11.6254 13.4499 11.2459 14.2228 11.0922C14.9957 10.9384 15.7968 11.0173 16.5248 11.3189C17.2529 11.6205 17.8752 12.1312 18.313 12.7864C18.7508 13.4416 18.9844 14.212 18.9844 15C18.9844 16.0567 18.5647 17.0702 17.8175 17.8174C17.0702 18.5646 16.0568 18.9844 15.0001 18.9844Z" stroke="black" mask="url(#path-1-outside-1_2723_502)"/>
</svg>
