<svg width="30" height="30" viewBox="0 0 30 30" fill="none" xmlns="http://www.w3.org/2000/svg">
<path d="M1.00407 15.3881C1.05084 15.494 2.04102 17.6864 4.24817 19.8936L4.24828 19.8937C6.299 21.942 9.82999 24.3906 15 24.3906C20.1699 24.3906 23.7009 21.942 25.7516 19.8937L25.7517 19.8936C27.9456 17.6997 28.9376 15.5234 28.9963 15.3871C29.0501 15.2655 29.0779 15.1341 29.0779 15.0012C29.0779 14.8679 29.05 14.7362 28.9959 14.6144C28.9437 14.4951 27.9528 12.3086 25.7517 10.1076L25.7516 10.1075C23.7009 8.05919 20.17 5.60938 15 5.60938C9.82995 5.60938 6.29896 8.05919 4.24828 10.1075L4.24817 10.1076C2.05749 12.2983 1.06497 14.4716 1.00343 14.6157C0.949737 14.7371 0.921997 14.8684 0.921997 15.0012C0.921997 15.1345 0.949957 15.2663 1.00407 15.3881ZM1.00407 15.3881L1.23276 15.2871L1.00437 15.3888C1.00427 15.3885 1.00417 15.3883 1.00407 15.3881ZM5.63122 11.4203L5.63119 11.4204C4.56668 12.4775 3.66127 13.6833 2.94305 15C3.66146 16.3169 4.56685 17.523 5.63118 18.5808L5.63122 11.4203ZM5.63122 11.4203C8.242 8.82683 11.39 7.51562 15 7.51562C18.6099 7.51562 21.7579 8.82683 24.3687 11.4203L24.3687 11.4204M5.63122 11.4203L24.3687 11.4204M24.3687 11.4204C25.4335 12.4778 26.3391 13.684 27.0574 15.0011C26.1914 16.61 22.5057 22.4844 15 22.4844C11.39 22.4844 8.24203 21.1732 5.63126 18.5809L24.3687 11.4204ZM15.0003 9.35938H15C13.8843 9.35938 12.7938 9.69019 11.8662 10.31C10.9386 10.9298 10.2156 11.8107 9.78869 12.8414C9.36177 13.8721 9.25006 15.0063 9.46771 16.1004C9.68535 17.1946 10.2226 18.1997 11.0114 18.9885C11.8003 19.7774 12.8053 20.3146 13.8995 20.5322C14.9937 20.7499 16.1278 20.6382 17.1585 20.2113C18.1892 19.7843 19.0702 19.0614 19.69 18.1338C20.3098 17.2062 20.6406 16.1156 20.6406 15V14.9997C20.6386 13.5044 20.0438 12.0709 18.9864 11.0135C17.9291 9.95619 16.4956 9.36132 15.0003 9.35938ZM15 18.7344C14.2614 18.7344 13.5394 18.5154 12.9252 18.105C12.3111 17.6947 11.8325 17.1115 11.5498 16.4291C11.2672 15.7467 11.1932 14.9959 11.3373 14.2715C11.4814 13.5471 11.8371 12.8817 12.3593 12.3594C12.8816 11.8371 13.547 11.4815 14.2714 11.3374C14.9958 11.1933 15.7467 11.2672 16.429 11.5499C17.1114 11.8325 17.6946 12.3112 18.105 12.9253C18.5153 13.5394 18.7343 14.2614 18.7343 15C18.7343 15.9904 18.3409 16.9403 17.6406 17.6406C16.9402 18.3409 15.9904 18.7344 15 18.7344Z" fill="black" stroke="black" stroke-width="0.5"/>
</svg>
