<svg width="55" height="55" viewBox="0 0 55 55" fill="none" xmlns="http://www.w3.org/2000/svg">
<circle cx="27.5" cy="27.5" r="27.5" fill="#2B89A5"/>
<g opacity="0.7" clip-path="url(#clip0_256_1029)">
<rect width="28.5161" height="34" transform="translate(13 10)" fill="#2B89A5"/>
<path d="M34.2178 24.7114L34.2223 22.5547H33.4916C33.2636 22.5547 32.7921 22.6345 32.515 22.8517C32.2402 23.0689 32.1061 23.4147 32.0659 23.6807C32.0257 23.9467 32.0167 24.7136 32.0167 24.7136H34.2156L34.2178 24.7114ZM34.0837 15.8274L37.1184 16.1709L34.0636 15.9803C34.0435 16.0911 34.01 16.1998 33.9675 16.3017L37.7128 17.9664L33.8089 16.5965C33.7396 16.6985 33.6614 16.7916 33.572 16.8758L35.6659 19.0347L33.4201 17.0044C33.2905 17.1019 33.1452 17.1839 32.9888 17.2438L33.5139 19.733C33.6927 19.733 33.8826 19.7374 34.0994 19.7374C34.9128 19.7374 35.8424 19.8061 36.3251 19.4071C36.8234 18.9971 37.21 18.341 37.21 18.341V32.9061H17.5519V24.5451C17.5519 24.5451 18.0704 25.4805 18.7162 25.9815C19.3843 26.5024 20.1776 26.662 20.1776 26.662V30.2772H34.5485V27.5996H28.5128C28.5128 27.5996 29.2793 26.6974 29.3083 26.1389C29.3352 25.5803 29.3039 25.1237 29.2659 24.8444C29.2301 24.5873 29.2279 24.523 29.2324 24.0087C29.2324 23.5898 29.3396 22.4261 29.7486 21.7168C30.1709 20.9831 30.8212 20.2694 31.8513 19.9768C32.6 19.764 33.0178 19.7352 33.5027 19.7352L32.5865 17.3524C32.4972 17.3657 32.4055 17.3723 32.3117 17.3723C32.2357 17.3723 32.1597 17.3679 32.086 17.359L31.4692 19.733L31.9027 17.328C31.7351 17.2903 31.5765 17.2305 31.4312 17.1529L22.2246 27.4422L30.9955 16.8226C30.9709 16.796 30.9463 16.7694 30.924 16.7428L21.067 22.8096L30.7787 16.5478C30.7608 16.5189 30.7452 16.4901 30.7273 16.4613L15.2816 19.7396L30.5597 15.9648C30.5486 15.9072 30.5419 15.8473 30.5396 15.7875L19.7151 14.8432L30.5419 15.5503C30.5463 15.4971 30.553 15.4461 30.562 15.3951L17.6324 10.3125L30.7027 14.9718C30.7631 14.8476 30.8413 14.7346 30.9307 14.6282L27.4759 11.2125L31.1184 14.4398C31.2726 14.3068 31.4536 14.1982 31.6502 14.125L30.7363 10L32.0837 14.0164C32.1575 14.0076 32.2357 14.0031 32.3117 14.0031C32.3787 14.0031 32.4458 14.0076 32.5106 14.0142L33.1608 11.1947L32.7273 14.0519C32.9016 14.0918 33.067 14.1561 33.2167 14.2403L36.4815 10.5763L33.5631 14.4952C33.6301 14.5595 33.6927 14.6282 33.7486 14.7013L37.1698 12.8594L33.8446 14.8388C33.8983 14.9274 33.9452 15.0205 33.9832 15.1181L39.7351 13.6928L34.0815 15.5481C34.086 15.5946 34.0882 15.6412 34.0882 15.6877C34.0882 15.7343 34.0882 15.783 34.0815 15.8318L34.0837 15.8274ZM32.486 15.6478L38.772 40.3936C39.2413 40.3936 39.61 40.2739 39.8647 40.0213C40.124 39.773 40.2536 39.4582 40.2536 39.0881C40.2536 38.7179 40.1284 38.4054 39.8759 38.1549C39.6212 37.9022 39.248 37.7803 38.7698 37.7803H36.6379V40.3936H38.7698L32.486 15.6478ZM34.5396 41.5285V40.3936H35.4245V36.6454H38.877C39.6726 36.6454 40.296 36.8782 40.7586 37.337C41.2301 37.7892 41.467 38.3699 41.467 39.0859C41.467 39.5912 41.3105 40.0346 40.9999 40.4202C40.6871 40.8059 40.2826 41.0741 39.7865 41.2271L39.6837 41.2581L41.5139 43.8471H39.9809L38.4346 41.5285H36.6379V43.8471H35.4223V41.5285H34.5374H34.5396ZM32.5977 43.632C32.0569 43.8781 31.4893 44 30.8949 44C29.7955 44 28.8704 43.6409 28.115 42.9205C27.3664 42.1935 26.9933 41.3046 26.9933 40.2473C26.9933 39.19 27.3709 38.3123 28.1262 37.5852C28.8815 36.8582 29.8044 36.4947 30.8949 36.4947C31.4983 36.4947 32.0659 36.6166 32.5977 36.8626C33.1072 37.0976 33.5564 37.4478 33.9474 37.9155L32.9418 38.6625C32.7072 38.3411 32.4189 38.0928 32.0748 37.9177C31.7173 37.7227 31.3217 37.6274 30.8927 37.6274C30.1865 37.6274 29.572 37.8823 29.0558 38.3876C28.5374 38.8952 28.2759 39.5159 28.2759 40.2451C28.2759 40.9744 28.5374 41.5906 29.0558 42.1048C29.581 42.6102 30.1955 42.8651 30.8927 42.8651C31.3284 42.8651 31.7262 42.7765 32.0837 42.5991C32.4279 42.4262 32.7206 42.1846 32.962 41.8765L33.9452 42.5814C33.5608 43.0424 33.1117 43.3927 32.5955 43.6343L32.5977 43.632ZM19.9139 40.7195V39.5846H20.7989V36.6454H26.3363V37.7803H22.0145V39.5846H25.0268V40.7195H22.0145V42.7122H26.3363V43.8471H20.7989V40.7195H19.9139ZM13 40.7195V39.5846H13.8849V36.6454H19.4223V37.7803H15.1006V39.5846H18.1128V40.7195H15.1006V43.8471H13.8849V40.7195H13Z" fill="white"/>
</g>
<defs>
<clipPath id="clip0_256_1029">
<rect width="28.5161" height="34" fill="white" transform="translate(13 10)"/>
</clipPath>
</defs>
</svg>
