<svg width="30" height="24" viewBox="0 0 30 24" fill="none" xmlns="http://www.w3.org/2000/svg">
<path d="M6.14526 1.21876C6.01654 1.09928 5.84777 1.0323 5.67215 1.03099C5.49653 1.02969 5.32678 1.09416 5.1963 1.21171C5.06582 1.32926 4.98405 1.49138 4.96709 1.66618C4.95013 1.84099 4.99919 2.01581 5.10464 2.15626L7.55151 4.85157C3.18276 7.41797 1.31362 11.5313 1.23276 11.7152C1.1927 11.8052 1.172 11.9027 1.172 12.0012C1.172 12.0997 1.1927 12.1971 1.23276 12.2871C1.27261 12.3773 2.24761 14.5395 4.42495 16.7168C6.44526 18.7348 9.91636 21.1406 15 21.1406C17.1248 21.1535 19.227 20.7037 21.1605 19.8223L23.8558 22.7859C23.9814 22.9239 24.1566 23.0064 24.343 23.0152C24.5293 23.024 24.7116 22.9584 24.8496 22.8328C24.9876 22.7073 25.07 22.532 25.0788 22.3457C25.0876 22.1593 25.022 21.9771 24.8964 21.8391L6.14526 1.21876ZM11.8429 9.57657L17.1164 15.3797C16.3246 15.8744 15.3843 16.0754 14.4595 15.9476C13.5347 15.8198 12.6841 15.3713 12.0562 14.6803C11.4284 13.9894 11.0631 13.0999 11.0241 12.1671C10.9851 11.2343 11.2749 10.3175 11.8429 9.57657ZM15 19.7344C11.3226 19.7344 8.11167 18.3961 5.45503 15.7582C4.3411 14.6517 3.39868 13.385 2.65894 12C3.16167 11.0391 5.0144 7.87735 8.51831 5.9168L10.8855 8.51954C10.0427 9.51823 9.59138 10.7891 9.61549 12.0956C9.63961 13.4022 10.1375 14.6555 11.0166 15.6224C11.8957 16.5893 13.0961 17.204 14.3944 17.3521C15.6928 17.5001 17.0007 17.1715 18.075 16.4274L20.1621 18.7242C18.5258 19.4013 16.7708 19.7447 15 19.7344ZM15.75 8.08594C15.5667 8.05098 15.4049 7.94466 15.3001 7.79038C15.1953 7.63611 15.156 7.4465 15.191 7.26329C15.2259 7.08007 15.3322 6.91825 15.4865 6.81342C15.6408 6.70859 15.8304 6.66934 16.0136 6.7043C17.1586 6.92673 18.201 7.51319 18.9855 8.37627C19.77 9.23935 20.2547 10.3328 20.3671 11.4938C20.3757 11.5857 20.366 11.6784 20.3388 11.7667C20.3115 11.8549 20.2671 11.9369 20.2081 12.0079C20.1491 12.079 20.0767 12.1377 19.995 12.1808C19.9133 12.2239 19.8239 12.2505 19.732 12.259H19.6664C19.4905 12.2597 19.3208 12.1946 19.1906 12.0763C19.0605 11.9581 18.9793 11.7954 18.9632 11.6203C18.8797 10.7637 18.5218 9.957 17.9428 9.32018C17.3638 8.68336 16.5947 8.25048 15.75 8.08594ZM28.7671 12.2871C28.7191 12.3949 27.5519 14.9824 24.9164 17.3402C24.848 17.4043 24.7675 17.4541 24.6796 17.4866C24.5918 17.5191 24.4983 17.5338 24.4047 17.5297C24.3111 17.5255 24.2192 17.5028 24.1345 17.4627C24.0499 17.4225 23.9741 17.3659 23.9116 17.2961C23.8491 17.2263 23.8012 17.1447 23.7707 17.0561C23.7402 16.9675 23.7277 16.8737 23.734 16.7802C23.7403 16.6867 23.7651 16.5954 23.8072 16.5117C23.8492 16.4279 23.9076 16.3534 23.9789 16.2926C25.3412 15.0686 26.479 13.6159 27.341 12C26.6011 10.6152 25.6587 9.34847 24.5449 8.2418C21.8882 5.60391 18.6773 4.26563 15 4.26563C14.227 4.26471 13.4552 4.32742 12.6925 4.45313C12.6007 4.47044 12.5063 4.46927 12.415 4.44969C12.3236 4.43011 12.237 4.39251 12.1603 4.33909C12.0837 4.28567 12.0184 4.21751 11.9684 4.13857C11.9184 4.05964 11.8846 3.97153 11.869 3.87938C11.8534 3.78724 11.8564 3.69292 11.8777 3.60193C11.899 3.51093 11.9382 3.4251 11.993 3.34945C12.0479 3.27379 12.1173 3.20983 12.1971 3.1613C12.277 3.11277 12.3657 3.08064 12.4582 3.0668C13.2982 2.92735 14.1484 2.85797 15 2.85938C20.0835 2.85938 23.5546 5.26641 25.575 7.28438C27.7523 9.46173 28.7273 11.6203 28.7671 11.7152C28.8072 11.8052 28.8279 11.9027 28.8279 12.0012C28.8279 12.0997 28.8072 12.1971 28.7671 12.2871Z" fill="black"/>
<path d="M6.3231 1.04273L6.33022 1.05056L25.0813 21.6708C25.0814 21.6708 25.0814 21.6709 25.0814 21.6709C25.2515 21.8579 25.3404 22.1049 25.3285 22.3574C25.3166 22.61 25.2048 22.8475 25.0178 23.0177C24.8308 23.1879 24.5838 23.2768 24.3312 23.2649C24.0786 23.253 23.8411 23.1412 23.6709 22.9542L23.6709 22.9541L21.0975 20.1245C19.1773 20.9715 17.0992 21.4033 14.9992 21.3906C14.9989 21.3906 14.9987 21.3906 14.9984 21.3906L15 21.1406C9.91636 21.1406 6.44526 18.7348 4.42495 16.7168L6.3231 1.04273ZM6.3231 1.04273L6.31534 1.03552C6.14085 0.873566 5.91207 0.78277 5.67401 0.781002C5.43595 0.779233 5.20584 0.866619 5.02897 1.02597L5.02897 1.02597C4.85209 1.18531 4.74125 1.40508 4.71826 1.64204C4.69526 1.87899 4.76178 2.11597 4.90471 2.30636L4.91171 2.31567L4.91954 2.3243L7.16178 4.79419L6.3231 1.04273ZM16.0605 6.45873L16.0613 6.45889C17.2592 6.6916 18.3497 7.30515 19.1705 8.20811C19.9913 9.11107 20.4983 10.2551 20.616 11.4696L20.6161 11.4706C20.6277 11.5953 20.6146 11.721 20.5776 11.8406C20.5406 11.9601 20.4804 12.0713 20.4004 12.1676C20.3205 12.2639 20.2223 12.3436 20.1116 12.402C20.0009 12.4604 19.8797 12.4964 19.7551 12.5079L19.7436 12.509H19.732H19.6669H19.6664V12.259C19.4905 12.2597 19.3208 12.1946 19.1906 12.0763C19.0605 11.9581 18.9793 11.7954 18.9632 11.6203L16.0605 6.45873ZM16.0605 6.45873C15.8121 6.41134 15.5551 6.46454 15.346 6.60664C15.1369 6.74873 14.9928 6.96808 14.9454 7.21642C14.898 7.46477 14.9512 7.72177 15.0933 7.93089C15.2354 8.14001 15.4547 8.28412 15.7031 8.33151L15.75 8.08594L15.7022 8.33133C16.4941 8.48557 17.2151 8.89137 17.7578 9.48835C18.3005 10.0852 18.636 10.8414 18.7144 11.6442L16.0605 6.45873ZM15.0001 2.60938C14.1355 2.60796 13.2722 2.67836 12.4192 2.81986C12.2946 2.83877 12.175 2.88221 12.0673 2.94765C11.9591 3.01344 11.865 3.10014 11.7906 3.2027C11.7163 3.30525 11.6631 3.42161 11.6342 3.54495C11.6054 3.66829 11.6014 3.79615 11.6225 3.92106C11.6436 4.04596 11.6894 4.16541 11.7572 4.2724C11.825 4.3794 11.9135 4.47181 12.0174 4.54422C12.1214 4.61663 12.2387 4.6676 12.3626 4.69414C12.4854 4.72047 12.6123 4.72224 12.7358 4.69937C13.4841 4.57618 14.2413 4.51473 14.9997 4.51563H15C18.6099 4.51563 21.7579 5.82682 24.3687 8.41915C25.4332 9.47685 26.3386 10.6831 27.0569 12.0001C26.2171 13.5423 25.1204 14.9304 23.8139 16.1047C23.7185 16.1868 23.6403 16.287 23.5838 16.3995C23.5268 16.513 23.493 16.6367 23.4845 16.7634C23.4761 16.8902 23.493 17.0173 23.5343 17.1374C23.5756 17.2575 23.6406 17.3681 23.7253 17.4628L23.9116 17.2961L23.7253 17.4628C23.81 17.5575 23.9127 17.6342 24.0275 17.6886L24.1345 17.4627L24.0275 17.6886C24.1423 17.743 24.2668 17.7738 24.3937 17.7794C24.5206 17.785 24.6473 17.7652 24.7664 17.7211C24.8846 17.6773 24.9929 17.6106 25.0851 17.5248C27.7565 15.1341 28.9407 12.5119 28.9955 12.3889L28.9955 12.3888C29.0498 12.2668 29.0779 12.1347 29.0779 12.0012C29.0779 11.8684 29.0502 11.7371 28.9965 11.6157C28.9348 11.4714 27.9423 9.29819 25.7517 7.1076L25.7516 7.1075C23.701 5.05922 20.17 2.60944 15.0001 2.60938ZM15.0001 2.60938C15.0001 2.60938 15 2.60938 15 2.60938V2.85938L15.0004 2.60938C15.0003 2.60938 15.0002 2.60938 15.0001 2.60938ZM1.00437 12.3888L1.23276 12.2871L7.3328 4.98259C3.12028 7.55547 1.31226 11.5344 1.23276 11.7152L1.00437 11.6136C1.00429 11.6138 1.00421 11.6139 1.00413 11.6141C0.949978 11.736 0.921997 11.8678 0.921997 12.0012C0.921997 12.1345 0.949957 12.2663 1.00407 12.3881C1.00417 12.3883 1.00427 12.3886 1.00437 12.3888ZM15.0014 19.4844H15C11.39 19.4844 8.242 18.1732 5.63122 15.5808C4.56636 14.523 3.66076 13.3165 2.94252 11.9991C3.50541 10.9555 5.26662 8.08998 8.46808 6.23314L10.5561 8.52889C9.76332 9.54608 9.34166 10.8064 9.36554 12.1002C9.39077 13.4674 9.91177 14.7789 10.8316 15.7906C11.7515 16.8024 13.0075 17.4455 14.3661 17.6005C15.6518 17.7471 16.9465 17.447 18.0343 16.7544L19.7344 18.6253C18.2246 19.2022 16.6197 19.4939 15.0014 19.4844ZM11.8675 9.97539L16.7217 15.3171C16.0386 15.6707 15.2605 15.8059 14.4937 15.6999C13.6269 15.5801 12.8297 15.1598 12.2413 14.5122C11.6528 13.8646 11.3104 13.0309 11.2739 12.1567C11.2415 11.3833 11.4504 10.6216 11.8675 9.97539Z" stroke="black" stroke-opacity="0.5" stroke-width="0.5"/>
</svg>
