<svg width="30" height="30" viewBox="0 0 30 30" fill="none" xmlns="http://www.w3.org/2000/svg">
<mask id="path-1-outside-1_480_801" maskUnits="userSpaceOnUse" x="0.171997" y="3.03098" width="30" height="24" fill="black">
<rect fill="white" x="0.171997" y="3.03098" width="30" height="24"/>
<path d="M6.14526 4.21876C6.01654 4.09928 5.84777 4.0323 5.67215 4.03099C5.49653 4.02969 5.32678 4.09416 5.1963 4.21171C5.06582 4.32926 4.98405 4.49138 4.96709 4.66618C4.95013 4.84099 4.99919 5.01581 5.10464 5.15626L7.55151 7.85157C3.18276 10.418 1.31362 14.5313 1.23276 14.7152C1.1927 14.8052 1.172 14.9027 1.172 15.0012C1.172 15.0997 1.1927 15.1971 1.23276 15.2871C1.27261 15.3773 2.24761 17.5395 4.42495 19.7168C6.44526 21.7348 9.91636 24.1406 15 24.1406C17.1248 24.1535 19.227 23.7037 21.1605 22.8223L23.8558 25.7859C23.9814 25.9239 24.1566 26.0064 24.343 26.0152C24.5293 26.024 24.7116 25.9584 24.8496 25.8328C24.9876 25.7073 25.07 25.532 25.0788 25.3457C25.0876 25.1593 25.022 24.9771 24.8964 24.8391L6.14526 4.21876ZM11.8429 12.5766L17.1164 18.3797C16.3246 18.8744 15.3843 19.0754 14.4595 18.9476C13.5347 18.8198 12.6841 18.3713 12.0562 17.6803C11.4284 16.9894 11.0631 16.0999 11.0241 15.1671C10.9851 14.2343 11.2749 13.3175 11.8429 12.5766ZM15 22.7344C11.3226 22.7344 8.11167 21.3961 5.45503 18.7582C4.3411 17.6517 3.39868 16.385 2.65894 15C3.16167 14.0391 5.0144 10.8773 8.51831 8.9168L10.8855 11.5195C10.0427 12.5182 9.59138 13.7891 9.61549 15.0956C9.63961 16.4022 10.1375 17.6555 11.0166 18.6224C11.8957 19.5893 13.0961 20.204 14.3944 20.3521C15.6928 20.5001 17.0007 20.1715 18.075 19.4274L20.1621 21.7242C18.5258 22.4013 16.7708 22.7447 15 22.7344ZM15.75 11.0859C15.5667 11.051 15.4049 10.9447 15.3001 10.7904C15.1953 10.6361 15.156 10.4465 15.191 10.2633C15.2259 10.0801 15.3322 9.91825 15.4865 9.81342C15.6408 9.70859 15.8304 9.66934 16.0136 9.7043C17.1586 9.92673 18.201 10.5132 18.9855 11.3763C19.77 12.2393 20.2547 13.3328 20.3671 14.4938C20.3757 14.5857 20.366 14.6784 20.3388 14.7667C20.3115 14.8549 20.2671 14.9369 20.2081 15.0079C20.1491 15.079 20.0767 15.1377 19.995 15.1808C19.9133 15.2239 19.8239 15.2505 19.732 15.259H19.6664C19.4905 15.2597 19.3208 15.1946 19.1906 15.0763C19.0605 14.9581 18.9793 14.7954 18.9632 14.6203C18.8797 13.7637 18.5218 12.957 17.9428 12.3202C17.3638 11.6834 16.5947 11.2505 15.75 11.0859ZM28.7671 15.2871C28.7191 15.3949 27.5519 17.9824 24.9164 20.3402C24.848 20.4043 24.7675 20.4541 24.6796 20.4866C24.5918 20.5191 24.4983 20.5338 24.4047 20.5297C24.3111 20.5255 24.2192 20.5028 24.1345 20.4627C24.0499 20.4225 23.9741 20.3659 23.9116 20.2961C23.8491 20.2263 23.8012 20.1447 23.7707 20.0561C23.7402 19.9675 23.7277 19.8737 23.734 19.7802C23.7403 19.6867 23.7651 19.5954 23.8072 19.5117C23.8492 19.4279 23.9076 19.3534 23.9789 19.2926C25.3412 18.0686 26.479 16.6159 27.341 15C26.6011 13.6152 25.6587 12.3485 24.5449 11.2418C21.8882 8.60391 18.6773 7.26563 15 7.26563C14.227 7.26471 13.4552 7.32742 12.6925 7.45313C12.6007 7.47044 12.5063 7.46927 12.415 7.44969C12.3236 7.43011 12.237 7.39251 12.1603 7.33909C12.0837 7.28567 12.0184 7.21751 11.9684 7.13857C11.9184 7.05964 11.8846 6.97153 11.869 6.87938C11.8534 6.78724 11.8564 6.69292 11.8777 6.60193C11.899 6.51093 11.9382 6.4251 11.993 6.34945C12.0479 6.27379 12.1173 6.20983 12.1971 6.1613C12.277 6.11277 12.3657 6.08064 12.4582 6.0668C13.2982 5.92735 14.1484 5.85797 15 5.85938C20.0835 5.85938 23.5546 8.26641 25.575 10.2844C27.7523 12.4617 28.7273 14.6203 28.7671 14.7152C28.8072 14.8052 28.8279 14.9027 28.8279 15.0012C28.8279 15.0997 28.8072 15.1971 28.7671 15.2871Z"/>
</mask>
<path d="M6.14526 4.21876C6.01654 4.09928 5.84777 4.0323 5.67215 4.03099C5.49653 4.02969 5.32678 4.09416 5.1963 4.21171C5.06582 4.32926 4.98405 4.49138 4.96709 4.66618C4.95013 4.84099 4.99919 5.01581 5.10464 5.15626L7.55151 7.85157C3.18276 10.418 1.31362 14.5313 1.23276 14.7152C1.1927 14.8052 1.172 14.9027 1.172 15.0012C1.172 15.0997 1.1927 15.1971 1.23276 15.2871C1.27261 15.3773 2.24761 17.5395 4.42495 19.7168C6.44526 21.7348 9.91636 24.1406 15 24.1406C17.1248 24.1535 19.227 23.7037 21.1605 22.8223L23.8558 25.7859C23.9814 25.9239 24.1566 26.0064 24.343 26.0152C24.5293 26.024 24.7116 25.9584 24.8496 25.8328C24.9876 25.7073 25.07 25.532 25.0788 25.3457C25.0876 25.1593 25.022 24.9771 24.8964 24.8391L6.14526 4.21876ZM11.8429 12.5766L17.1164 18.3797C16.3246 18.8744 15.3843 19.0754 14.4595 18.9476C13.5347 18.8198 12.6841 18.3713 12.0562 17.6803C11.4284 16.9894 11.0631 16.0999 11.0241 15.1671C10.9851 14.2343 11.2749 13.3175 11.8429 12.5766ZM15 22.7344C11.3226 22.7344 8.11167 21.3961 5.45503 18.7582C4.3411 17.6517 3.39868 16.385 2.65894 15C3.16167 14.0391 5.0144 10.8773 8.51831 8.9168L10.8855 11.5195C10.0427 12.5182 9.59138 13.7891 9.61549 15.0956C9.63961 16.4022 10.1375 17.6555 11.0166 18.6224C11.8957 19.5893 13.0961 20.204 14.3944 20.3521C15.6928 20.5001 17.0007 20.1715 18.075 19.4274L20.1621 21.7242C18.5258 22.4013 16.7708 22.7447 15 22.7344ZM15.75 11.0859C15.5667 11.051 15.4049 10.9447 15.3001 10.7904C15.1953 10.6361 15.156 10.4465 15.191 10.2633C15.2259 10.0801 15.3322 9.91825 15.4865 9.81342C15.6408 9.70859 15.8304 9.66934 16.0136 9.7043C17.1586 9.92673 18.201 10.5132 18.9855 11.3763C19.77 12.2393 20.2547 13.3328 20.3671 14.4938C20.3757 14.5857 20.366 14.6784 20.3388 14.7667C20.3115 14.8549 20.2671 14.9369 20.2081 15.0079C20.1491 15.079 20.0767 15.1377 19.995 15.1808C19.9133 15.2239 19.8239 15.2505 19.732 15.259H19.6664C19.4905 15.2597 19.3208 15.1946 19.1906 15.0763C19.0605 14.9581 18.9793 14.7954 18.9632 14.6203C18.8797 13.7637 18.5218 12.957 17.9428 12.3202C17.3638 11.6834 16.5947 11.2505 15.75 11.0859ZM28.7671 15.2871C28.7191 15.3949 27.5519 17.9824 24.9164 20.3402C24.848 20.4043 24.7675 20.4541 24.6796 20.4866C24.5918 20.5191 24.4983 20.5338 24.4047 20.5297C24.3111 20.5255 24.2192 20.5028 24.1345 20.4627C24.0499 20.4225 23.9741 20.3659 23.9116 20.2961C23.8491 20.2263 23.8012 20.1447 23.7707 20.0561C23.7402 19.9675 23.7277 19.8737 23.734 19.7802C23.7403 19.6867 23.7651 19.5954 23.8072 19.5117C23.8492 19.4279 23.9076 19.3534 23.9789 19.2926C25.3412 18.0686 26.479 16.6159 27.341 15C26.6011 13.6152 25.6587 12.3485 24.5449 11.2418C21.8882 8.60391 18.6773 7.26563 15 7.26563C14.227 7.26471 13.4552 7.32742 12.6925 7.45313C12.6007 7.47044 12.5063 7.46927 12.415 7.44969C12.3236 7.43011 12.237 7.39251 12.1603 7.33909C12.0837 7.28567 12.0184 7.21751 11.9684 7.13857C11.9184 7.05964 11.8846 6.97153 11.869 6.87938C11.8534 6.78724 11.8564 6.69292 11.8777 6.60193C11.899 6.51093 11.9382 6.4251 11.993 6.34945C12.0479 6.27379 12.1173 6.20983 12.1971 6.1613C12.277 6.11277 12.3657 6.08064 12.4582 6.0668C13.2982 5.92735 14.1484 5.85797 15 5.85938C20.0835 5.85938 23.5546 8.26641 25.575 10.2844C27.7523 12.4617 28.7273 14.6203 28.7671 14.7152C28.8072 14.8052 28.8279 14.9027 28.8279 15.0012C28.8279 15.0997 28.8072 15.1971 28.7671 15.2871Z" fill="black"/>
<path d="M6.14526 4.21876C6.01654 4.09928 5.84777 4.0323 5.67215 4.03099C5.49653 4.02969 5.32678 4.09416 5.1963 4.21171C5.06582 4.32926 4.98405 4.49138 4.96709 4.66618C4.95013 4.84099 4.99919 5.01581 5.10464 5.15626L7.55151 7.85157C3.18276 10.418 1.31362 14.5313 1.23276 14.7152C1.1927 14.8052 1.172 14.9027 1.172 15.0012C1.172 15.0997 1.1927 15.1971 1.23276 15.2871C1.27261 15.3773 2.24761 17.5395 4.42495 19.7168C6.44526 21.7348 9.91636 24.1406 15 24.1406C17.1248 24.1535 19.227 23.7037 21.1605 22.8223L23.8558 25.7859C23.9814 25.9239 24.1566 26.0064 24.343 26.0152C24.5293 26.024 24.7116 25.9584 24.8496 25.8328C24.9876 25.7073 25.07 25.532 25.0788 25.3457C25.0876 25.1593 25.022 24.9771 24.8964 24.8391L6.14526 4.21876ZM11.8429 12.5766L17.1164 18.3797C16.3246 18.8744 15.3843 19.0754 14.4595 18.9476C13.5347 18.8198 12.6841 18.3713 12.0562 17.6803C11.4284 16.9894 11.0631 16.0999 11.0241 15.1671C10.9851 14.2343 11.2749 13.3175 11.8429 12.5766ZM15 22.7344C11.3226 22.7344 8.11167 21.3961 5.45503 18.7582C4.3411 17.6517 3.39868 16.385 2.65894 15C3.16167 14.0391 5.0144 10.8773 8.51831 8.9168L10.8855 11.5195C10.0427 12.5182 9.59138 13.7891 9.61549 15.0956C9.63961 16.4022 10.1375 17.6555 11.0166 18.6224C11.8957 19.5893 13.0961 20.204 14.3944 20.3521C15.6928 20.5001 17.0007 20.1715 18.075 19.4274L20.1621 21.7242C18.5258 22.4013 16.7708 22.7447 15 22.7344ZM15.75 11.0859C15.5667 11.051 15.4049 10.9447 15.3001 10.7904C15.1953 10.6361 15.156 10.4465 15.191 10.2633C15.2259 10.0801 15.3322 9.91825 15.4865 9.81342C15.6408 9.70859 15.8304 9.66934 16.0136 9.7043C17.1586 9.92673 18.201 10.5132 18.9855 11.3763C19.77 12.2393 20.2547 13.3328 20.3671 14.4938C20.3757 14.5857 20.366 14.6784 20.3388 14.7667C20.3115 14.8549 20.2671 14.9369 20.2081 15.0079C20.1491 15.079 20.0767 15.1377 19.995 15.1808C19.9133 15.2239 19.8239 15.2505 19.732 15.259H19.6664C19.4905 15.2597 19.3208 15.1946 19.1906 15.0763C19.0605 14.9581 18.9793 14.7954 18.9632 14.6203C18.8797 13.7637 18.5218 12.957 17.9428 12.3202C17.3638 11.6834 16.5947 11.2505 15.75 11.0859ZM28.7671 15.2871C28.7191 15.3949 27.5519 17.9824 24.9164 20.3402C24.848 20.4043 24.7675 20.4541 24.6796 20.4866C24.5918 20.5191 24.4983 20.5338 24.4047 20.5297C24.3111 20.5255 24.2192 20.5028 24.1345 20.4627C24.0499 20.4225 23.9741 20.3659 23.9116 20.2961C23.8491 20.2263 23.8012 20.1447 23.7707 20.0561C23.7402 19.9675 23.7277 19.8737 23.734 19.7802C23.7403 19.6867 23.7651 19.5954 23.8072 19.5117C23.8492 19.4279 23.9076 19.3534 23.9789 19.2926C25.3412 18.0686 26.479 16.6159 27.341 15C26.6011 13.6152 25.6587 12.3485 24.5449 11.2418C21.8882 8.60391 18.6773 7.26563 15 7.26563C14.227 7.26471 13.4552 7.32742 12.6925 7.45313C12.6007 7.47044 12.5063 7.46927 12.415 7.44969C12.3236 7.43011 12.237 7.39251 12.1603 7.33909C12.0837 7.28567 12.0184 7.21751 11.9684 7.13857C11.9184 7.05964 11.8846 6.97153 11.869 6.87938C11.8534 6.78724 11.8564 6.69292 11.8777 6.60193C11.899 6.51093 11.9382 6.4251 11.993 6.34945C12.0479 6.27379 12.1173 6.20983 12.1971 6.1613C12.277 6.11277 12.3657 6.08064 12.4582 6.0668C13.2982 5.92735 14.1484 5.85797 15 5.85938C20.0835 5.85938 23.5546 8.26641 25.575 10.2844C27.7523 12.4617 28.7273 14.6203 28.7671 14.7152C28.8072 14.8052 28.8279 14.9027 28.8279 15.0012C28.8279 15.0997 28.8072 15.1971 28.7671 15.2871Z" stroke="black" stroke-opacity="0.5" mask="url(#path-1-outside-1_480_801)"/>
</svg>
