<svg width="30" height="30" viewBox="0 0 30 30" fill="none" xmlns="http://www.w3.org/2000/svg">
<path d="M6.14526 4.21876C6.01654 4.09928 5.84777 4.0323 5.67215 4.03099C5.49653 4.02969 5.32678 4.09416 5.1963 4.21171C5.06582 4.32926 4.98405 4.49138 4.96709 4.66618C4.95013 4.84099 4.99919 5.01581 5.10464 5.15626L7.55151 7.85157C3.18276 10.418 1.31362 14.5313 1.23276 14.7152C1.1927 14.8052 1.172 14.9027 1.172 15.0012C1.172 15.0997 1.1927 15.1971 1.23276 15.2871C1.27261 15.3773 2.24761 17.5395 4.42495 19.7168C6.44526 21.7348 9.91636 24.1406 15 24.1406C17.1248 24.1535 19.227 23.7037 21.1605 22.8223L23.8558 25.7859C23.9814 25.9239 24.1566 26.0064 24.343 26.0152C24.5293 26.024 24.7116 25.9584 24.8496 25.8328C24.9876 25.7073 25.07 25.532 25.0788 25.3457C25.0876 25.1593 25.022 24.9771 24.8964 24.8391L6.14526 4.21876ZM11.8429 12.5766L17.1164 18.3797C16.3246 18.8744 15.3843 19.0754 14.4595 18.9476C13.5347 18.8198 12.6841 18.3713 12.0562 17.6803C11.4284 16.9894 11.0631 16.0999 11.0241 15.1671C10.9851 14.2343 11.2749 13.3175 11.8429 12.5766ZM15 22.7344C11.3226 22.7344 8.11167 21.3961 5.45503 18.7582C4.3411 17.6517 3.39868 16.385 2.65894 15C3.16167 14.0391 5.0144 10.8773 8.51831 8.9168L10.8855 11.5195C10.0427 12.5182 9.59138 13.7891 9.61549 15.0956C9.63961 16.4022 10.1375 17.6555 11.0166 18.6224C11.8957 19.5893 13.0961 20.204 14.3944 20.3521C15.6928 20.5001 17.0007 20.1715 18.075 19.4274L20.1621 21.7242C18.5258 22.4013 16.7708 22.7447 15 22.7344ZM15.75 11.0859C15.5667 11.051 15.4049 10.9447 15.3001 10.7904C15.1953 10.6361 15.156 10.4465 15.191 10.2633C15.2259 10.0801 15.3322 9.91825 15.4865 9.81342C15.6408 9.70859 15.8304 9.66934 16.0136 9.7043C17.1586 9.92673 18.201 10.5132 18.9855 11.3763C19.77 12.2393 20.2547 13.3328 20.3671 14.4938C20.3757 14.5857 20.366 14.6784 20.3388 14.7667C20.3115 14.8549 20.2671 14.9369 20.2081 15.0079C20.1491 15.079 20.0767 15.1377 19.995 15.1808C19.9133 15.2239 19.8239 15.2505 19.732 15.259H19.6664C19.4905 15.2597 19.3208 15.1946 19.1906 15.0763C19.0605 14.9581 18.9793 14.7954 18.9632 14.6203C18.8797 13.7637 18.5218 12.957 17.9428 12.3202C17.3638 11.6834 16.5947 11.2505 15.75 11.0859ZM28.7671 15.2871C28.7191 15.3949 27.5519 17.9824 24.9164 20.3402C24.848 20.4043 24.7675 20.4541 24.6796 20.4866C24.5918 20.5191 24.4983 20.5338 24.4047 20.5297C24.3111 20.5255 24.2192 20.5028 24.1345 20.4627C24.0499 20.4225 23.9741 20.3659 23.9116 20.2961C23.8491 20.2263 23.8012 20.1447 23.7707 20.0561C23.7402 19.9675 23.7277 19.8737 23.734 19.7802C23.7403 19.6867 23.7651 19.5954 23.8072 19.5117C23.8492 19.4279 23.9076 19.3534 23.9789 19.2926C25.3412 18.0686 26.479 16.6159 27.341 15C26.6011 13.6152 25.6587 12.3485 24.5449 11.2418C21.8882 8.60391 18.6773 7.26563 15 7.26563C14.227 7.26471 13.4552 7.32742 12.6925 7.45313C12.6007 7.47044 12.5063 7.46927 12.415 7.44969C12.3236 7.43011 12.237 7.39251 12.1603 7.33909C12.0837 7.28567 12.0184 7.21751 11.9684 7.13857C11.9184 7.05964 11.8846 6.97153 11.869 6.87938C11.8534 6.78724 11.8564 6.69292 11.8777 6.60193C11.899 6.51093 11.9382 6.4251 11.993 6.34945C12.0479 6.27379 12.1173 6.20983 12.1971 6.1613C12.277 6.11277 12.3657 6.08064 12.4582 6.0668C13.2982 5.92735 14.1484 5.85797 15 5.85938C20.0835 5.85938 23.5546 8.26641 25.575 10.2844C27.7523 12.4617 28.7273 14.6203 28.7671 14.7152C28.8072 14.8052 28.8279 14.9027 28.8279 15.0012C28.8279 15.0997 28.8072 15.1971 28.7671 15.2871Z" fill="black"/>
<path d="M6.3231 4.04273L6.33022 4.05056L25.0813 24.6708C25.0814 24.6708 25.0814 24.6709 25.0814 24.6709C25.2515 24.8579 25.3404 25.1049 25.3285 25.3574C25.3166 25.61 25.2048 25.8475 25.0178 26.0177C24.8308 26.1879 24.5838 26.2768 24.3312 26.2649C24.0786 26.253 23.8411 26.1412 23.6709 25.9542L23.6709 25.9541L21.0975 23.1245C19.1773 23.9715 17.0992 24.4033 14.9992 24.3906C14.9989 24.3906 14.9987 24.3906 14.9984 24.3906L15 24.1406C9.91636 24.1406 6.44526 21.7348 4.42495 19.7168L6.3231 4.04273ZM6.3231 4.04273L6.31534 4.03552C6.14085 3.87357 5.91207 3.78277 5.67401 3.781C5.43595 3.77923 5.20584 3.86662 5.02897 4.02597L5.02897 4.02597C4.85209 4.18531 4.74125 4.40508 4.71826 4.64204C4.69526 4.87899 4.76178 5.11597 4.90471 5.30636L4.91171 5.31567L4.91954 5.3243L7.16178 7.79419L6.3231 4.04273ZM16.0605 9.45873L16.0613 9.45889C17.2592 9.6916 18.3497 10.3052 19.1705 11.2081C19.9913 12.1111 20.4983 13.2551 20.616 14.4696L20.6161 14.4706C20.6277 14.5953 20.6146 14.721 20.5776 14.8406C20.5406 14.9601 20.4804 15.0713 20.4004 15.1676C20.3205 15.2639 20.2223 15.3436 20.1116 15.402C20.0009 15.4604 19.8797 15.4964 19.7551 15.5079L19.7436 15.509H19.732H19.6669H19.6664V15.259C19.4905 15.2597 19.3208 15.1946 19.1906 15.0763C19.0605 14.9581 18.9793 14.7954 18.9632 14.6203L16.0605 9.45873ZM16.0605 9.45873C15.8121 9.41134 15.5551 9.46454 15.346 9.60664C15.1369 9.74873 14.9928 9.96808 14.9454 10.2164C14.898 10.4648 14.9512 10.7218 15.0933 10.9309C15.2354 11.14 15.4547 11.2841 15.7031 11.3315L15.75 11.0859L15.7022 11.3313C16.4941 11.4856 17.2151 11.8914 17.7578 12.4884C18.3005 13.0852 18.636 13.8414 18.7144 14.6442L16.0605 9.45873ZM15.0001 5.60938C14.1355 5.60796 13.2722 5.67836 12.4192 5.81986C12.2946 5.83877 12.175 5.88221 12.0673 5.94765C11.9591 6.01344 11.865 6.10014 11.7906 6.2027C11.7163 6.30525 11.6631 6.42161 11.6342 6.54495C11.6054 6.66829 11.6014 6.79615 11.6225 6.92106C11.6436 7.04596 11.6894 7.16541 11.7572 7.2724C11.825 7.3794 11.9135 7.47181 12.0174 7.54422C12.1214 7.61663 12.2387 7.6676 12.3626 7.69414C12.4854 7.72047 12.6123 7.72224 12.7358 7.69937C13.4841 7.57618 14.2413 7.51473 14.9997 7.51563H15C18.6099 7.51563 21.7579 8.82682 24.3687 11.4191C25.4332 12.4768 26.3386 13.6831 27.0569 15.0001C26.2171 16.5423 25.1204 17.9304 23.8139 19.1047C23.7185 19.1868 23.6403 19.287 23.5838 19.3995C23.5268 19.513 23.493 19.6367 23.4845 19.7634C23.4761 19.8902 23.493 20.0173 23.5343 20.1374C23.5756 20.2575 23.6406 20.3681 23.7253 20.4628L23.9116 20.2961L23.7253 20.4628C23.81 20.5575 23.9127 20.6342 24.0275 20.6886L24.1345 20.4627L24.0275 20.6886C24.1423 20.743 24.2668 20.7738 24.3937 20.7794C24.5206 20.785 24.6473 20.7652 24.7664 20.7211C24.8846 20.6773 24.9929 20.6106 25.0851 20.5248C27.7565 18.1341 28.9407 15.5119 28.9955 15.3889L28.9955 15.3888C29.0498 15.2668 29.0779 15.1347 29.0779 15.0012C29.0779 14.8684 29.0502 14.7371 28.9965 14.6157C28.9348 14.4714 27.9423 12.2982 25.7517 10.1076L25.7516 10.1075C23.701 8.05922 20.17 5.60944 15.0001 5.60938ZM15.0001 5.60938C15.0001 5.60938 15 5.60938 15 5.60938V5.85938L15.0004 5.60938C15.0003 5.60938 15.0002 5.60938 15.0001 5.60938ZM1.00437 15.3888L1.23276 15.2871L7.3328 7.98259C3.12028 10.5555 1.31226 14.5344 1.23276 14.7152L1.00437 14.6136C1.00429 14.6138 1.00421 14.6139 1.00413 14.6141C0.949978 14.736 0.921997 14.8678 0.921997 15.0012C0.921997 15.1345 0.949957 15.2663 1.00407 15.3881C1.00417 15.3883 1.00427 15.3886 1.00437 15.3888ZM15.0014 22.4844H15C11.39 22.4844 8.242 21.1732 5.63122 18.5808C4.56636 17.523 3.66076 16.3165 2.94252 14.9991C3.50541 13.9555 5.26662 11.09 8.46808 9.23314L10.5561 11.5289C9.76332 12.5461 9.34166 13.8064 9.36554 15.1002C9.39077 16.4674 9.91177 17.7789 10.8316 18.7906C11.7515 19.8024 13.0075 20.4455 14.3661 20.6005C15.6518 20.7471 16.9465 20.447 18.0343 19.7544L19.7344 21.6253C18.2246 22.2022 16.6197 22.4939 15.0014 22.4844ZM11.8675 12.9754L16.7217 18.3171C16.0386 18.6707 15.2605 18.8059 14.4937 18.6999C13.6269 18.5801 12.8297 18.1598 12.2413 17.5122C11.6528 16.8646 11.3104 16.0309 11.2739 15.1567C11.2415 14.3833 11.4504 13.6216 11.8675 12.9754Z" stroke="black" stroke-opacity="0.5" stroke-width="0.5"/>
</svg>
