<svg width="92" height="42" viewBox="0 0 92 42" fill="none" xmlns="http://www.w3.org/2000/svg">
<path d="M1.74 20V4.8H5.4V20H1.74ZM10 12.08L16.66 19.64V20H12.4L5.82 12.42V12.06L12.32 4.8H16.3V5.16L10 12.08ZM25.5406 20.2C21.1206 20.2 18.2006 17.6 18.2006 13.7V4.8H21.8606V13.52C21.8606 15.56 23.3406 16.92 25.5406 16.92C27.7406 16.92 29.2206 15.56 29.2206 13.52V4.8H32.8806V13.7C32.8806 17.6 29.9606 20.2 25.5406 20.2ZM47.5336 14.08L50.7536 19.64V20H46.8136L43.9936 14.76H39.8336V20H36.1736V4.8H44.5136C47.9336 4.8 50.2136 6.8 50.2136 9.78C50.2136 11.72 49.2136 13.24 47.5336 14.08ZM39.8336 7.94V11.62H44.3336C45.5736 11.62 46.3936 10.86 46.3936 9.78C46.3936 8.68 45.5536 7.94 44.3336 7.94H39.8336ZM54.6253 4.62C55.8253 4.62 56.6453 5.5 56.6453 6.84C56.6453 8.22 55.7853 10.22 54.3653 11.52H52.5653V11.16C53.5653 10.28 54.1653 9.3 54.4853 8.38C53.3653 8.32 52.6053 7.6 52.6053 6.5C52.6053 5.36 53.4253 4.62 54.6253 4.62ZM64.3208 4.4L72.7008 19.64V20H68.8008L67.6808 17.78H60.6008L59.4808 20H55.5808V19.64L63.9608 4.4H64.3208ZM62.1608 14.64H66.1208L64.1408 10.7L62.1608 14.64ZM85.5005 4.8H89.0605V20.4H88.7005L77.7805 11.54V20H74.2205V4.4H74.5805L85.5005 13.26V4.8Z" fill="white"/>
<path d="M6.64 26.52L13.152 38.888V39H12L10.208 35.56H2.976L1.184 39H0.032V38.888L6.544 26.52H6.64ZM3.456 34.616H9.728L6.592 28.584L3.456 34.616ZM22.4566 26.84H23.6246V26.952L18.2326 33.96V39H17.1446V33.96L11.7526 26.952V26.84H12.9206L17.6886 33.048L22.4566 26.84ZM30.3104 26.84C34.1664 26.84 36.7264 29.272 36.7264 32.952C36.7264 36.568 34.1664 39 30.3104 39H25.5424V26.84H30.3104ZM30.2464 38.072C33.4464 38.072 35.5744 36.008 35.5744 32.952C35.5744 29.848 33.4464 27.768 30.2464 27.768H26.6304V38.072H30.2464ZM39.5268 39V26.84H40.6148V39H39.5268ZM54.3739 26.84H55.4299V39.32H55.3179L45.2859 28.808V39H44.2299V26.52H44.3419L54.3739 37.032V26.84ZM60.1304 38.072H68.5304V39H59.0424V26.84H60.1304V38.072ZM70.5736 39V26.84H71.6616V39H70.5736ZM81.0848 26.296C79.5328 26.296 78.5088 25.336 78.5088 23.912H79.1168C79.1168 25 79.9008 25.72 81.0848 25.72C82.2688 25.72 83.0528 25 83.0528 23.912H83.6448C83.6448 25.336 82.6208 26.296 81.0848 26.296ZM80.0288 32.28H86.0288V37.544C84.8608 38.52 82.8928 39.16 81.1008 39.16C77.1168 39.16 74.4768 36.664 74.4768 32.904C74.4768 29.176 77.1328 26.68 81.1008 26.68C82.8288 26.68 84.7008 27.352 85.8208 28.36V29.448C84.6688 28.36 82.8448 27.64 81.2448 27.64C77.8688 27.64 75.6128 29.752 75.6128 32.92C75.6128 36.072 77.8528 38.2 81.2128 38.2C82.4608 38.2 83.8688 37.768 84.9568 37.096V33.208H80.0288V32.28ZM89.1049 39V26.84H90.1929V39H89.1049Z" fill="white"/>
</svg>
