<svg width="30" height="30" viewBox="0 0 30 30" fill="none" xmlns="http://www.w3.org/2000/svg">
<path d="M6.14539 4.21873C6.01666 4.09925 5.84789 4.03227 5.67227 4.03096C5.49665 4.02966 5.32691 4.09412 5.19642 4.21168C5.06594 4.32923 4.98418 4.49135 4.96721 4.66615C4.95025 4.84096 4.99932 5.01578 5.10476 5.15623L7.55164 7.85154C3.18289 10.4179 1.31374 14.5312 1.23289 14.7152C1.19282 14.8052 1.17212 14.9026 1.17212 15.0011C1.17212 15.0997 1.19282 15.1971 1.23289 15.2871C1.27273 15.3773 2.24773 17.5394 4.42507 19.7168C6.44538 21.7347 9.91648 24.1406 15.0001 24.1406C17.1249 24.1535 19.2271 23.7036 21.1606 22.8222L23.8559 25.7859C23.9815 25.9239 24.1567 26.0064 24.3431 26.0152C24.5295 26.024 24.7117 25.9584 24.8497 25.8328C24.9877 25.7072 25.0701 25.532 25.0789 25.3456C25.0877 25.1593 25.0221 24.977 24.8966 24.839L6.14539 4.21873ZM11.843 12.5765L17.1165 18.3797C16.3247 18.8744 15.3844 19.0754 14.4596 18.9476C13.5348 18.8197 12.6842 18.3712 12.0564 17.6803C11.4285 16.9894 11.0632 16.0999 11.0242 15.1671C10.9852 14.2343 11.275 13.3175 11.843 12.5765ZM15.0001 22.7344C11.3227 22.7344 8.11179 21.3961 5.45515 18.7582C4.34122 17.6516 3.3988 16.3849 2.65906 15C3.16179 14.039 5.01453 10.8773 8.51843 8.91677L10.8856 11.5195C10.0428 12.5182 9.5915 13.789 9.61562 15.0956C9.63973 16.4022 10.1376 17.6555 11.0167 18.6224C11.8958 19.5893 13.0962 20.204 14.3945 20.352C15.6929 20.5001 17.0009 20.1715 18.0751 19.4273L20.1622 21.7242C18.5259 22.4013 16.7709 22.7447 15.0001 22.7344ZM15.7501 11.0859C15.5669 11.0509 15.405 10.9446 15.3002 10.7904C15.1954 10.6361 15.1561 10.4465 15.1911 10.2633C15.2261 10.08 15.3324 9.91822 15.4866 9.81339C15.6409 9.70856 15.8305 9.66931 16.0137 9.70427C17.1587 9.9267 18.2011 10.5132 18.9856 11.3762C19.7702 12.2393 20.2548 13.3328 20.3673 14.4937C20.3758 14.5857 20.3662 14.6784 20.3389 14.7666C20.3116 14.8549 20.2672 14.9368 20.2082 15.0079C20.1492 15.079 20.0768 15.1377 19.9951 15.1808C19.9134 15.2239 19.8241 15.2504 19.7321 15.259H19.6665C19.4906 15.2597 19.3209 15.1945 19.1908 15.0763C19.0606 14.9581 18.9795 14.7954 18.9634 14.6203C18.8798 13.7637 18.5219 12.957 17.9429 12.3201C17.364 11.6833 16.5949 11.2504 15.7501 11.0859ZM28.7673 15.2871C28.7192 15.3949 27.552 17.9824 24.9165 20.3402C24.8481 20.4043 24.7676 20.454 24.6798 20.4866C24.5919 20.5191 24.4984 20.5337 24.4048 20.5296C24.3112 20.5255 24.2193 20.5027 24.1347 20.4626C24.05 20.4225 23.9742 20.3659 23.9117 20.2961C23.8492 20.2262 23.8013 20.1446 23.7708 20.056C23.7403 19.9674 23.7278 19.8736 23.7341 19.7801C23.7404 19.6867 23.7653 19.5954 23.8073 19.5116C23.8494 19.4279 23.9077 19.3534 23.979 19.2926C25.3413 18.0686 26.4791 16.6159 27.3411 15C26.6012 13.6151 25.6588 12.3484 24.545 11.2418C21.8884 8.60388 18.6774 7.2656 15.0001 7.2656C14.2271 7.26468 13.4553 7.32739 12.6927 7.4531C12.6008 7.47041 12.5065 7.46924 12.4151 7.44966C12.3237 7.43008 12.2371 7.39248 12.1605 7.33906C12.0838 7.28564 12.0185 7.21747 11.9685 7.13854C11.9185 7.05961 11.8847 6.9715 11.8691 6.87935C11.8535 6.78721 11.8565 6.69289 11.8778 6.6019C11.8991 6.5109 11.9383 6.42507 11.9932 6.34942C12.048 6.27376 12.1174 6.2098 12.1973 6.16127C12.2771 6.11274 12.3659 6.08061 12.4583 6.06677C13.2983 5.92732 14.1485 5.85794 15.0001 5.85935C20.0837 5.85935 23.5548 8.26638 25.5751 10.2844C27.7524 12.4617 28.7274 14.6203 28.7673 14.7152C28.8073 14.8052 28.828 14.9026 28.828 15.0011C28.828 15.0997 28.8073 15.1971 28.7673 15.2871Z" fill="black" fill-opacity="0.4"/>
<path d="M6.32322 4.0427L6.33035 4.05053L25.0815 24.6708C25.0815 24.6708 25.0815 24.6708 25.0815 24.6708C25.2517 24.8579 25.3406 25.1048 25.3287 25.3574C25.3167 25.61 25.205 25.8475 25.0179 26.0177C24.8309 26.1879 24.5839 26.2768 24.3313 26.2649C24.0787 26.253 23.8412 26.1412 23.671 25.9542L23.671 25.9541L21.0976 23.1245C19.1775 23.9715 17.0993 24.4032 14.9993 24.3906C14.9991 24.3906 14.9988 24.3906 14.9986 24.3906L15.0001 24.1406C9.91648 24.1406 6.44538 21.7347 4.42507 19.7168L6.32322 4.0427ZM6.32322 4.0427L6.31546 4.03549C6.14097 3.87354 5.91219 3.78274 5.67413 3.78097C5.43607 3.7792 5.20597 3.86659 5.02909 4.02593L5.02909 4.02594C4.85222 4.18528 4.74138 4.40505 4.71838 4.64201C4.69539 4.87896 4.7619 5.11594 4.90484 5.30633L4.91183 5.31564L4.91966 5.32427L7.1619 7.79416L6.32322 4.0427ZM16.0606 9.4587L16.0614 9.45886C17.2593 9.69157 18.3499 10.3051 19.1706 11.2081C19.9914 12.111 20.4984 13.2551 20.6161 14.4696L20.6162 14.4706C20.6278 14.5952 20.6147 14.7209 20.5777 14.8405C20.5407 14.9601 20.4805 15.0713 20.4006 15.1676C20.3206 15.2639 20.2225 15.3435 20.1117 15.4019C20.001 15.4603 19.8798 15.4963 19.7552 15.5079L19.7437 15.509H19.7321H19.667H19.6665V15.259C19.4906 15.2597 19.3209 15.1945 19.1908 15.0763C19.0606 14.9581 18.9795 14.7954 18.9634 14.6203L16.0606 9.4587ZM16.0606 9.4587C15.8123 9.41131 15.5553 9.46451 15.3461 9.60661C15.137 9.7487 14.9929 9.96805 14.9455 10.2164C14.8981 10.4647 14.9513 10.7217 15.0934 10.9309C15.2355 11.14 15.4549 11.2841 15.7032 11.3315L15.7501 11.0859L15.7023 11.3313C16.4942 11.4855 17.2152 11.8913 17.7579 12.4883C18.3006 13.0852 18.6361 13.8413 18.7145 14.6442L16.0606 9.4587ZM15.0003 5.60935C14.1356 5.60793 13.2723 5.67833 12.4193 5.81983C12.2947 5.83874 12.1751 5.88218 12.0674 5.94762C11.9592 6.01341 11.8651 6.10011 11.7908 6.20267C11.7164 6.30522 11.6632 6.42157 11.6344 6.54492C11.6055 6.66826 11.6015 6.79612 11.6226 6.92103C11.6437 7.04593 11.6895 7.16537 11.7573 7.27237C11.8252 7.37937 11.9136 7.47178 12.0176 7.54419C12.1215 7.6166 12.2388 7.66757 12.3627 7.69411C12.4856 7.72044 12.6124 7.72221 12.7359 7.69934C13.4842 7.57615 14.2414 7.5147 14.9998 7.5156H15.0001C18.61 7.5156 21.758 8.82679 24.3688 11.4191C25.4333 12.4768 26.3387 13.683 27.057 15.0001C26.2172 16.5423 25.1206 17.9304 23.814 19.1047C23.7186 19.1868 23.6404 19.2869 23.5839 19.3994C23.5269 19.5129 23.4932 19.6367 23.4847 19.7634C23.4762 19.8901 23.4931 20.0173 23.5344 20.1374C23.5758 20.2575 23.6407 20.3681 23.7254 20.4628L23.9117 20.2961L23.7254 20.4628C23.8101 20.5574 23.9129 20.6342 24.0276 20.6886L24.1347 20.4626L24.0276 20.6886C24.1424 20.7429 24.2669 20.7738 24.3938 20.7794C24.5207 20.785 24.6474 20.7651 24.7665 20.721C24.8847 20.6773 24.993 20.6106 25.0852 20.5247C27.7566 18.134 28.9408 15.5119 28.9956 15.3888L28.9957 15.3888C29.05 15.2667 29.078 15.1347 29.078 15.0011C29.078 14.8684 29.0503 14.7371 28.9966 14.6156C28.935 14.4714 27.9424 12.2982 25.7519 10.1076L25.7517 10.1075C23.7011 8.05919 20.1702 5.60941 15.0003 5.60935ZM15.0003 5.60935C15.0002 5.60935 15.0001 5.60935 15.0001 5.60935V5.85935L15.0005 5.60935C15.0004 5.60935 15.0003 5.60935 15.0003 5.60935ZM1.00449 15.3888L1.23289 15.2871L7.33293 7.98256C3.1204 10.5554 1.31238 14.5343 1.23289 14.7152L1.00449 14.6135C1.00441 14.6137 1.00433 14.6139 1.00425 14.6141C0.9501 14.7359 0.922119 14.8678 0.922119 15.0011C0.922119 15.1344 0.950079 15.2663 1.00419 15.3881C1.00429 15.3883 1.00439 15.3885 1.00449 15.3888ZM15.0015 22.4844H15.0001C11.3901 22.4844 8.24213 21.1732 5.63134 18.5808C4.56648 17.523 3.66088 16.3165 2.94264 14.9991C3.50553 13.9555 5.26675 11.09 8.46821 9.23311L10.5562 11.5289C9.76345 12.5461 9.34178 13.8064 9.36566 15.1002C9.39089 16.4674 9.9119 17.7788 10.8317 18.7906C11.7516 19.8023 13.0076 20.4455 14.3662 20.6004C15.6519 20.747 16.9466 20.447 18.0345 19.7544L19.7345 21.6253C18.2247 22.2022 16.6198 22.4938 15.0015 22.4844ZM11.8677 12.9754L16.7218 18.3171C16.0388 18.6707 15.2606 18.8059 14.4938 18.6999C13.627 18.5801 12.8299 18.1597 12.2414 17.5122C11.6529 16.8646 11.3105 16.0309 11.274 15.1567C11.2417 14.3833 11.4505 13.6216 11.8677 12.9754Z" stroke="black" stroke-opacity="0.5" stroke-width="0.5"/>
</svg>
